<svg xmlns="http://www.w3.org/2000/svg" width="116" height="86" viewBox="0 0 116 86">
  <g fill="none" fill-rule="evenodd">
    <path fill="#CF2A32" fill-rule="nonzero" d="M0.153051183,44.3913101 L0.153051183,0.73723246 C0.351371026,0.722142907 0.534601316,0.696275101 0.715675955,0.696275101 C7.80201759,0.696275101 14.8883592,0.696275101 21.9747009,0.696275101 C24.1826474,0.662352641 26.3853936,0.920390696 28.5257226,1.46368667 C32.7982219,2.61480402 35.9691837,5.14122636 37.8941796,9.13133538 C39.6186999,12.7226491 38.8922457,17.0404169 36.1804374,19.778093 C35.5484489,20.4166321 34.8212575,20.9532994 34.024787,21.3689631 C33.9191601,21.42501 33.8092219,21.4810569 33.7079064,21.5435708 C33.6863499,21.5565047 33.6820386,21.6017733 33.6626377,21.6513533 C34.3308893,21.9466774 35.0077636,22.226912 35.665237,22.5459482 C36.328449,22.8724578 36.945334,23.2856475 37.4996955,23.774669 C33.1883946,29.4073837 32.8305566,35.1543478 36.8659343,41.1125657 C36.6848597,41.2613056 36.4951624,41.431602 36.2925313,41.5846532 C34.6650152,42.8112183 32.8090001,43.5247386 30.8365799,43.9558687 C29.2039003,44.3079313 27.5380041,44.4828323 25.8678056,44.4775361 C17.4837624,44.4602909 9.10187482,44.4365787 0.722142907,44.4063996 C0.55400217,44.4063996 0.383705783,44.4063996 0.153051183,44.3913101 Z M14.9106343,34.0441878 L15.5875085,34.0441878 C18.0859074,34.0441878 20.5843063,34.0441878 23.0827052,34.0441878 C23.4956991,34.0487007 23.9082923,34.0169627 24.3157373,33.9493392 C25.6673301,33.7035951 26.6869528,33.0180982 27.0965264,31.6449489 C27.5061,30.2717995 26.9607204,28.6679956 25.7643344,27.721665 C24.973487,27.0953708 23.9900468,26.762479 22.9813896,26.7796458 L15.3848774,26.7796458 C15.2361375,26.7796458 15.085242,26.8012023 14.9127899,26.8162918 L14.9106343,34.0441878 Z M14.9602142,11.5176404 C14.8459648,12.0479305 14.8588987,17.8875876 14.9817707,18.3338072 L15.5206834,18.3338072 C17.3982549,18.3338072 19.2758265,18.3467411 21.153398,18.3338072 C22.5761273,18.3338072 23.8371829,17.8897432 24.8180038,16.8248519 C25.8958291,15.6413998 25.8699613,14.1324445 24.7792021,12.9640819 C23.9896737,12.0974508 22.8774356,11.5951497 21.7052446,11.575843 C19.605641,11.5154848 17.5038818,11.5090178 15.4021226,11.48315 C15.2490714,11.48315 15.0895533,11.5068622 14.9602142,11.5176404 Z"/>
    <path fill="#CF2A32" fill-rule="nonzero" d="M74.7752034,34.5399874 L84.2104855,44.2986171 C83.9949205,44.4710691 83.7793554,44.4128666 83.5918138,44.4128666 C80.6083936,44.4128666 77.6249733,44.4128666 74.6415531,44.4128666 C72.9687683,44.4128666 71.2959836,44.4128666 69.6231988,44.4128666 C69.2971828,44.4284539 68.9811509,44.2980907 68.7609386,44.0571842 C67.771495,43.0461842 66.7626506,42.0567406 65.7667401,41.0522075 C65.6430133,40.9070102 65.5312714,40.7520134 65.4326143,40.5887426 L65.33561,40.6706574 C65.2903414,40.6879026 65.2321388,40.6943695 65.199804,40.7267043 C63.5485758,42.4210455 61.5136417,43.4837812 59.3127226,44.2576597 C56.505947,45.2302313 53.5477002,45.6923661 50.5780269,45.6221865 C47.950289,45.5790735 45.4044658,45.1630329 42.9621138,44.1584998 C40.9185572,43.3177961 39.1142777,42.1235658 37.7885527,40.3192863 C36.1114566,38.0192073 35.1888382,35.4388937 35.3526677,32.5503221 C35.5014403,30.039099 36.3439194,27.6183706 37.786397,25.5573919 C39.5109174,23.0417478 41.7420156,21.1641763 44.6025638,20.0626389 C44.7879498,19.9915024 44.9668687,19.8966538 45.2061459,19.7867156 C45.0487835,19.6228862 44.9366896,19.5021698 44.8202845,19.3857647 C43.5507238,18.1622678 42.5097459,16.7219807 41.7463269,15.1326663 C39.8062415,10.9765722 40.8215529,6.60922433 44.397777,3.62795974 C46.2573253,2.09371041 48.4821942,1.06667651 50.8561058,0.64669514 C51.8215716,0.472817139 52.7972206,0.361211528 53.7770122,0.312569318 C55.0316008,0.239277202 56.2926563,0.198319843 57.5558675,0.215565047 C61.3929253,0.291012813 64.7406505,1.58871439 67.4416805,4.3608809 C69.5714632,6.54671047 70.7549153,9.17875969 70.8476083,12.241939 C70.918312,14.4869168 70.2636972,16.694919 68.980815,18.538594 C67.7325394,20.393614 66.0399788,21.9068402 64.0573093,22.9404323 C64.014612,22.9666114 63.9735761,22.9954085 63.9344372,23.0266583 C64.0680875,23.3564728 66.7044481,26.3614496 67.2325824,26.7861127 C67.7191344,26.5681648 68.1334201,26.2159472 68.4268128,25.7708013 C68.7760282,25.2814687 69.0735079,24.75549 69.3925442,24.2424452 C69.6188875,23.8781402 69.8452308,23.5116796 70.0715741,23.1452191 C70.5027042,23.1258182 70.9338343,23.0891722 71.3498748,23.0870165 C74.8678964,23.0625858 78.3887921,23.0417478 81.9125621,23.0245026 C82.0483681,23.0245026 82.1820184,23.0352809 82.4212956,23.0482148 C81.1408392,25.020635 79.8625385,26.9089848 78.601483,28.8081128 C77.3404275,30.7072409 76.0707493,32.5955907 74.7752034,34.5399874 Z M58.5798014,33.6647933 C58.4289059,33.494497 58.3340573,33.3759362 58.2284304,33.265998 L52.7272104,27.592326 C52.5504471,27.4090957 52.4124855,27.2086202 52.0805153,27.3767609 C51.0586926,27.8791026 50.1235944,28.5413122 49.3105044,29.3384029 C48.8348232,29.815719 48.4576177,30.3818934 48.2003444,31.0047207 C47.614824,32.3501755 48.0232326,33.9215255 49.189788,34.8115994 C49.7302828,35.2425905 50.3610029,35.5461615 51.0350248,35.6997274 C52.045446,35.9314544 53.0948043,35.9351363 54.1068267,35.7105056 C55.7364985,35.3806911 57.1829399,34.6563926 58.5798014,33.6647933 Z M59.5412216,11.4249475 C59.5412216,11.2093824 59.5563111,10.9765722 59.5412216,10.7545402 C59.4549955,9.73491751 58.6789614,8.7562522 57.7541873,8.50404109 C57.0060408,8.29771297 56.2283271,8.21972294 55.4541083,8.27338649 C53.4903107,8.41350377 52.3003916,9.9224591 52.6517627,11.8647002 C52.9621763,13.6193997 54.0270677,14.86321 55.4260848,15.8720544 C55.6056136,15.9765345 55.8228338,15.9939756 56.016733,15.9194787 C58.1551383,15.5012825 59.698584,13.1925809 59.5412216,11.4249475 Z"/>
    <path fill="#CF2A32" fill-rule="nonzero" d="M107.392351 21.6448863C107.629472 21.7375793 107.756656 21.7893149 107.883839 21.8345836 111.477308 23.0783939 113.678227 25.6263728 114.736652 29.2112195 114.980993 30.0197735 115.118682 30.8567781 115.146225 31.7009958 115.22814 35.2535077 113.852835 38.2089045 111.276833 40.6167661 109.435907 42.3412865 107.202653 43.3609091 104.768924 43.9515574 103.259448 44.3166234 101.71094 44.4954366 100.157988 44.484003 95.6397443 44.4581352 91.1215009 44.4387344 86.6032575 44.4258005 86.2763149 44.4391443 85.9603625 44.3064443 85.7409973 44.0636512 82.7144641 40.9451435 79.6821824 37.8323843 76.6441524 34.7253734 76.5493037 34.6283691 76.4630777 34.5205866 76.3294274 34.3718467L84.6028139 21.869074C83.9453405 21.7569802 83.3676262 21.8238053 82.7920675 21.8151827 82.2165088 21.8065601 81.6193936 21.8151827 81.0330567 21.8151827L79.2740459 21.8151827 77.5667708 21.8151827 75.80776 21.8151827 74.0832396 21.8151827C73.9409667 21.3646518 73.9215658 1.27398943 74.0573718.704897703 74.2255125.704897703 74.4108985.672562946 74.5941288.672562946 81.6474171.672562946 88.7007054.672562946 95.7539938.672562946 97.9795362.63685362 100.200139.893411543 102.358907 1.43566321 106.489133 2.56306841 109.57818 4.97092998 111.557067 8.7519409 113.589846 12.6321117 112.770699 17.4909479 109.49411 20.2631144 108.961158 20.670749 108.405548 21.0478731 107.829948 21.3926752 107.720009 21.4638117 107.601449 21.5241699 107.392351 21.6448863zM88.7459741 34.0398765L89.4832065 34.0398765C91.9643602 34.0398765 94.4412026 34.0398765 96.9288233 34.0398765 97.3422621 34.0391449 97.7550934 34.0081646 98.164011 33.9471836 99.625542 33.7316185 100.735702 32.7637315 100.99438 31.4401621 101.252026 30.2514702 100.899451 29.0126081 100.054516 28.1377055 99.2549325 27.2550842 98.1131181 26.7607956 96.9223563 26.7818014 94.3355757 26.7645562 91.7487952 26.7818014 89.1620146 26.7818014 89.0212526 26.7889794 88.8809512 26.8033693 88.7416628 26.8249144L88.7459741 34.0398765zM88.7459741 18.2777603C88.8195399 18.3023962 88.8953538 18.3197251 88.9723174 18.3294959 91.1452131 18.3294959 93.3181087 18.3747646 95.4888487 18.3144064 96.6628467 18.2900754 97.7761266 17.7879316 98.5714289 16.9240118 99.7656593 15.6478667 99.7656593 14.1884914 98.5714289 12.9123463 97.7972099 12.0779647 96.715359 11.5966228 95.5772304 11.5801543 93.458226 11.5176404 91.3370659 11.5133291 89.2180615 11.4874613 89.0622244 11.4939332 88.9068171 11.5083227 88.752441 11.5305743L88.7459741 18.2777603zM.159518135 48.8211718L.159518135 47.3359286 115.038443 47.3359286C115.106831 47.8135024 115.121293 48.2972525 115.081556 48.7780588L115.010419 48.8427283C114.997485 48.8535065 114.982396 48.8707517 114.967306 48.8707517 114.751741 48.88153 114.521087 48.8987752 114.296899 48.8987752L.284545862 48.8793743C.254366755 48.8793743.215565047 48.8513509.159518135 48.8211718zM.153051183 62.5138636L.153051183 60.987663 115.049221 60.987663 115.049221 62.4707505C114.833656 62.4836844 114.590068 62.5117079 114.357257 62.5117079L.153051183 62.5117079.153051183 62.5138636z"/>
    <path fill="#231E20" fill-rule="nonzero" d="M88.487296 76.7778027C89.6923046 77.2973145 89.9574496 78.2371781 90.0242748 79.2805129 90.0609209 79.8646942 90.0630765 80.4510311 90.0889443 81.037368 90.1169678 81.6581953 90.1816373 82.2725557 90.6106117 82.8416475L88.1035902 82.8416475C88.0473776 82.6168754 88.0063278 82.3885811 87.9807182 82.1583063 87.9376052 81.2809565 87.9009591 80.4014511 87.8837139 79.5241014 87.8578461 78.2307111 87.4655177 77.799581 86.1591935 77.7198219 85.7668651 77.6961098 85.3723811 77.7198219 84.9240058 77.7198219L84.9240058 82.8394918 82.8524257 82.8394918 82.8524257 71.1472437C83.0011656 71.1343098 83.1348159 71.1105976 83.2663106 71.1105976 84.4389845 71.1105976 85.6116583 71.0998194 86.7821765 71.1105976 87.1953017 71.1185243 87.6070353 71.1610677 88.0130529 71.237781 89.1426138 71.453346 89.8281106 72.1302203 89.9746949 73.272715 90.0488294 73.8354499 90.0546199 74.4050864 89.9919401 74.9692119 89.8906245 75.8099156 89.5004517 76.4781673 88.487296 76.7778027zM84.9326284 76.0836832C85.6095027 76.0836832 86.2583534 76.1461971 86.9007373 76.0190137 87.2871768 75.9670892 87.6101673 75.699325 87.7328184 75.3292056 87.9135563 74.7882269 87.9337713 74.2064847 87.7910209 73.6542652 87.7035087 73.2572103 87.3928768 72.9474202 86.9955859 72.8609858 86.3251786 72.6842225 85.6439931 72.7359581 84.9326284 72.7618259L84.9326284 76.0836832zM96.831819 71.1364654L98.9033991 71.1364654C98.9272413 71.2668693 98.943079 71.3986103 98.9508234 71.5309495 98.9508234 74.2384464 98.9508234 76.9452249 98.9508234 79.6512848 98.9473933 80.0303573 98.9156891 80.4086459 98.8559748 80.7830013 98.7461924 81.6602286 98.1681406 82.4083928 97.3470195 82.7360206 96.8525035 82.9319955 96.334251 83.0617398 95.8057294 83.121882 95.0332194 83.2196809 94.2486495 83.1460815 93.507806 82.906317 92.7365843 82.7069443 92.134652 82.1041864 91.9363368 81.3326921 91.7659268 80.7366724 91.6689235 80.1220764 91.6474796 79.5025449 91.6151449 76.8122931 91.6323901 74.1134187 91.6323901 71.4339452 91.6323901 71.3498748 91.6474796 71.2679601 91.6604135 71.1493993L93.7686397 71.1493993C93.7686397 71.3520305 93.7945075 71.552506 93.7945075 71.7529815 93.7945075 74.124197 93.7945075 76.5126577 93.7945075 78.8903401 93.792451 79.3231228 93.8227143 79.7554549 93.8850448 80.1837304 93.9635644 80.6952755 94.3034318 81.128721 94.7814828 81.326991 95.2595337 81.5252609 95.8064084 81.4595887 96.2239256 81.1537731 96.4396096 80.9876046 96.5917843 80.7524947 96.6550557 80.4876771 96.7628823 79.9481397 96.8191823 79.3995747 96.8231964 78.8493828 96.8404416 76.5040351 96.8231964 74.160843 96.8231964 71.8154953 96.831819 71.6042416 96.831819 71.3994548 96.831819 71.1364654zM107.269479 74.6825104L105.281969 74.6825104C105.245323 74.3505403 105.221611 74.0358153 105.169875 73.7124677 105.027602 72.8372736 104.35935 72.4190774 103.510024 72.6475764 103.182456 72.7472674 102.920206 72.9941616 102.800954 73.3151257 102.681703 73.6360898 102.719123 73.9943242 102.902131 74.2837151 103.169761 74.6612287 103.495746 74.9937619 103.867862 75.2688474 104.367973 75.6633314 104.91982 75.986679 105.437176 76.3574509 105.791382 76.6015297 106.129114 76.868691 106.448176 77.1571972 107.623005 78.2608902 107.88815 80.3497155 107.047447 81.7293318 106.674902 82.3399528 106.079788 82.7820377 105.387596 82.9623639 104.555435 83.2015771 103.67568 83.2223645 102.83315 83.0227221 101.767222 82.8270931 100.924092 82.0086357 100.6969 80.9489863 100.503717 80.242268 100.458221 79.5033252 100.56325 78.7782463L102.675787 78.7782463C102.675787 78.9938114 102.675787 79.2201547 102.708122 79.4357197 102.734394 79.8467518 102.781882 80.2561524 102.850395 80.6622848 102.916471 81.0553486 103.255878 81.343799 103.654453 81.345626 103.911155 81.3705691 104.170059 81.360416 104.42402 81.3154469 104.847593 81.2480025 105.188328 80.9311188 105.28628 80.513545 105.460888 79.8668498 105.37035 79.2740459 104.872395 78.7998028 104.564069 78.5262324 104.240181 78.2707205 103.902353 78.0345469 103.227634 77.5279691 102.537826 77.040792 101.865263 76.5255916 100.66241 75.6159071 100.461934 74.3699411 100.787438 73.0032587 101.02887 71.9556126 101.72299 71.2959836 102.744768 71.0006594 103.479062 70.7956754 104.253324 70.7801012 104.995267 70.9553908 106.14854 71.2097575 106.866372 71.9340561 107.163852 73.0679282 107.31213 73.5927198 107.348121 74.1428736 107.269479 74.6825104zM79.353805 82.8438031L77.1981545 82.8438031 77.1981545 73.0377491 74.6868217 73.0377491 74.6868217 71.1989793C75.0597493 71.0890411 81.1861079 71.0631733 81.8284917 71.1709558L81.8284917 73.0226596C81.0395237 73.0679282 80.235466 73.0226596 79.3688946 73.0549943 79.3408711 74.1543761 79.3688946 75.2322013 79.3559607 76.3100265 79.3430267 77.3878518 79.3559607 78.4829222 79.3559607 79.56937 79.3559607 80.6558179 79.353805 81.7314875 79.353805 82.8438031z"/>
    <polygon fill="#231E20" fill-rule="nonzero" points="110.777 73.044 108.298 73.044 108.298 71.136 115.411 71.136 115.411 73.027 112.956 73.027 112.956 82.824 110.777 82.824"/>
    <path fill="#231E20" fill-rule="nonzero" d="M35.0012966 83.7297754L35.9993628 83.7297754C36.2494183 84.0509674 36.4046251 84.3915601 36.6697701 84.5640122 37.1168871 84.8584426 37.6795444 84.9161779 38.1771384 84.7186859 38.6747324 84.5211939 39.0446557 84.0933231 39.168169 83.572413 39.3122482 83.0535807 39.3496475 82.5109242 39.2781072 81.9772316 39.1990073 82.0414569 39.1267674 82.1136968 39.0625421 82.1927967 38.4287809 83.251221 36.3119321 83.3762488 35.5100301 82.0936367 35.2854392 81.7474853 35.1139593 81.3696481 35.0012966 80.9726985 34.5829719 79.3766707 34.5556125 77.7033117 34.9215376 76.0944615 35.0013359 75.7597778 35.1252949 75.4371945 35.2901538 75.135197 35.7984315 74.1467003 36.9307742 73.6507378 38.0019621 73.9474336 38.4270195 74.0406342 38.8025233 74.2878984 39.0560752 74.6415531 39.1121221 74.7213121 39.1724803 74.7967599 39.2888854 74.9541224L39.3535549 74.1047961 40.4313802 74.1047961C40.4530239 74.2339468 40.4674175 74.3642084 40.4744932 74.4949688 40.4744932 77.1995916 40.4744932 79.904933 40.4744932 82.6109929 40.4838667 83.164171 40.3781599 83.7132591 40.1640795 84.2234194 39.8281942 85.0573608 39.0731263 85.6489265 38.1830367 85.7754877 37.5712246 85.8967244 36.9379874 85.8497903 36.3507338 85.6396818 35.4647615 85.3228011 34.9797401 84.6437712 35.0012966 83.7297754zM39.3492436 78.7437559C39.3125976 78.1401738 39.3147532 77.5495256 39.2263716 76.9739669 39.1586446 76.516747 39.0273154 76.0712436 38.8361988 75.6503975 38.5904547 75.1179518 38.101122 74.8959198 37.5190964 74.9217876 37.0031562 74.9332417 36.5466608 75.2589435 36.367979 75.7430905 36.2588967 75.9940405 36.1786247 76.2565515 36.1287018 76.5255916 35.9315823 77.6804041 35.9083314 78.8582086 36.059721 80.019901 36.1104207 80.4119958 36.2156264 80.7950897 36.3722903 81.1580844 36.5660028 81.6564516 37.0560943 81.9756616 37.5902328 81.9513638 38.1379826 81.9927679 38.6537542 81.6893223 38.8836231 81.1904192 39.0008505 80.9609252 39.083653 80.7154231 39.1293673 80.4618093 39.2328385 79.890562 39.2802628 79.3085363 39.347088 78.7437559L39.3492436 78.7437559zM94.8141302 58.8018334L93.5552303 58.8018334 92.169147 51.0414918C92.3609999 51.0264022 92.4946502 51.0070014 92.6283006 51.0048457 92.8438656 51.0048457 93.0594307 51.0048457 93.3181087 51.0048457L94.1501898 56.3271467 94.2234819 56.3271467 95.01245 51.0501144 99.8993096 51.0501144 99.8993096 52.1279396 98.7029236 52.1279396C98.6554993 52.9082851 98.6856784 53.6368949 98.6792114 54.376283 98.6727445 55.1156711 98.6792114 55.8248802 98.6792114 56.5491787 98.6792114 57.2734773 98.6792114 58.0236436 98.6792114 58.8018334L97.4806698 58.8018334 97.4806698 52.16243 96.2799725 52.16243 96.2196143 51.3281933 96.1441665 51.3281933 94.8141302 58.8018334zM58.7026735 78.7631568C58.6288349 79.4985105 58.5129588 80.2290341 58.3556138 80.951142 57.8576585 82.8394918 55.9542192 83.6672616 54.1865858 82.820091 53.566312 82.5320764 53.1031666 81.9870142 52.9190633 81.3283808 52.7396069 80.7192603 52.6155125 80.095181 52.5482914 79.4637432 52.4127383 78.3150314 52.4976076 77.1510049 52.7983469 76.0341033 52.8703659 75.7686528 52.9715807 75.5120011 53.100138 75.2688474 53.2335783 75.0287867 53.3918046 74.8033684 53.5722254 74.5962844 54.4581978 73.5572609 57.1829399 73.4128323 58.0624453 75.22789 58.3224256 75.771325 58.4906836 76.3540369 58.5604006 76.9524104 58.6336927 77.4870117 58.6466266 78.021613 58.7026735 78.7631568zM53.8265922 78.465677C53.8049861 78.8095235 53.8049861 79.1543871 53.8265922 79.4982336 53.8797967 80.0275964 53.9793382 80.5512712 54.1240719 81.0632358 54.339637 81.7487327 54.826814 82.0591463 55.5230891 82.0720802 56.1844913 82.1270245 56.7964675 81.7187426 56.9997097 81.086948 57.0623014 80.9267927 57.1113351 80.7616647 57.1462939 80.593304 57.3698529 79.4938791 57.4135336 78.3654627 57.2756329 77.2520458 57.2227368 76.7569405 57.1135296 76.2694859 56.9501297 75.7991374 56.7345646 75.2063335 56.2560102 74.9239433 55.6244047 74.9066981 54.8332809 74.8829859 54.3051466 75.2623804 54.0572468 76.0621267 53.845485 76.8445913 53.7675018 77.6572204 53.8265922 78.465677L53.8265922 78.465677zM13.8414317 82.0569907L13.8414317 82.7942231C12.9791715 83.2253532 12.3324763 82.9235622 11.9617044 81.8694491 11.8603889 82.0074107 11.7720072 82.1281272 11.6793142 82.2466879 11.0730997 83.015883 10.0358078 83.2992579 9.12271278 82.9451187 8.63380967 82.749288 8.25976882 82.3427564 8.10524576 81.83927 7.85189234 81.1002931 7.84131835 80.2996908 8.07506665 79.5542805 8.2110076 79.0852231 8.53694729 78.6944081 8.9739729 78.4764553 9.44606035 78.2328668 9.94401561 78.0453252 10.4311926 77.8297601 10.7459176 77.6917985 11.0778878 77.5689264 11.3710562 77.4115639 11.7297758 77.2501299 11.9432079 76.8755347 11.8991906 76.4846342 11.8776341 76.1936214 11.8862567 75.900453 11.8496106 75.6115958 11.8135746 75.2727499 11.5578344 74.9985542 11.2223163 74.9390328 10.9714933 74.8769845 10.7130091 74.8515717 10.4549048 74.8635851 9.73922881 74.9066981 9.41372559 75.2257344 9.29947612 75.9414103 9.27791961 76.0750606 9.25420746 76.2108666 9.22833965 76.3725404L8.21518393 76.3725404C8.072911 74.9304102 8.83816692 73.9840797 10.2307171 73.8978537 10.7276377 73.8669881 11.2264681 73.8973958 11.7159603 73.988391 12.4747493 74.1328196 12.8951011 74.6609539 13.0395297 75.4024977 13.0987939 75.7238867 13.128379 76.0500445 13.1279113 76.3768517 13.1279113 77.885807 13.1279113 79.3732059 13.1279113 80.8713829 13.1279113 80.9920994 13.1279113 81.1128158 13.1279113 81.2335322 13.1494679 81.8608265 13.179647 81.9147178 13.8414317 82.0569907zM11.927214 78.250112C11.261118 78.5325022 10.6489133 78.7868689 10.0431755 79.0520139 9.89830175 79.1069439 9.76516981 79.1888713 9.65084714 79.2934468 9.48980606 79.4423648 9.36009137 79.6219134 9.26929701 79.8215812 9.10415723 80.2599253 9.08375995 80.7396391 9.21109445 81.1904192 9.26566616 81.4643081 9.42712017 81.7051646 9.65973774 81.8597036 9.8923553 82.0142426 10.1769619 82.0697255 10.4505935 82.0138777 11.1533355 81.9168734 11.6512908 81.4426303 11.8323654 80.6687518 12.0134401 79.8948733 11.8970349 79.0735704 11.927214 78.250112zM21.9445218 74.1155744L23.1301295 74.1155744 23.1301295 82.8394918 22.0738608 82.8394918 22.0307478 81.8931613C21.912187 82.0289672 21.8367392 82.1087263 21.7720697 82.190641 21.0865729 83.1111038 19.5258819 83.4128948 18.5493723 82.8093127 18.1790627 82.5765898 17.9239469 82.1986114 17.8466302 81.7681335 17.7816142 81.4851542 17.7462146 81.1961787 17.7410033 80.9058733 17.7410033 78.7696237 17.7410033 76.6312185 17.7410033 74.4949688 17.7410033 74.3785637 17.7604042 74.2621586 17.7733381 74.1220413L18.9697241 74.1220413C18.9697241 74.3203612 18.9999032 74.518681 18.9999032 74.7148452 18.9999032 76.6448709 18.9999032 78.5748966 18.9999032 80.5049223 18.9959236 80.7114805 19.0045623 80.918089 19.025771 81.123594 19.0384564 81.3801682 19.1539782 81.6208113 19.3462467 81.7911758 19.5385152 81.9615403 19.7913136 82.047257 20.0475493 82.0289672 20.9127108 82.0892095 21.6880234 81.4975722 21.8582957 80.6471953 21.9204883 80.3436428 21.9508318 80.0344285 21.9488331 79.7245769 21.9488331 78.0539478 21.9488331 76.381163 21.9488331 74.7105339 21.9445218 74.525148 21.9445218 74.339762 21.9445218 74.1155744zM64.2664074 74.1134187L65.4498595 74.1134187 65.4498595 82.8373362 64.3935908 82.8373362 64.3526334 81.9017839C64.2383839 82.0289672 64.1629362 82.1022593 64.0982666 82.1884854 63.4106141 83.1111038 61.8520789 83.4128948 60.8755692 82.813624 60.5040589 82.5817376 60.2479886 82.2035055 60.1706715 81.7724448 60.1058541 81.4894307 60.0704571 81.2004759 60.0650446 80.9101846 60.0650446 78.773935 60.0650446 76.6355298 60.0650446 74.4992801 60.0650446 74.382875 60.0822898 74.2664699 60.0952237 74.1263526L61.3066993 74.1263526C61.3066993 74.3182055 61.3368784 74.5165254 61.3368784 74.7148452 61.3368784 76.6448709 61.3368784 78.5748966 61.3368784 80.5049223 61.3324248 80.7114347 61.340343 80.9180284 61.3605906 81.123594 61.3712237 81.3775162 61.4824104 81.6167837 61.6696367 81.7886437 61.856863 81.9605037 62.1047544 82.0508436 62.3586567 82.0397455 63.2239342 82.1012861 64.0002518 81.5105093 64.1715588 80.6601292 64.2346158 80.3566744 64.2656833 80.0474446 64.2642517 79.7375108 64.2642517 78.0668817 64.2642517 76.3940969 64.2642517 74.7213121 64.2664074 74.5273036 64.2664074 74.3419177 64.2664074 74.1134187zM45.6997899 85.6461487L45.6997899 84.6717947C45.9563123 84.7019738 46.1869669 84.7407755 46.4219328 84.7537094 46.8492011 84.7992306 47.2587128 84.5702841 47.4437111 84.182462 47.6277724 83.8323603 47.7765271 83.4648063 47.8877751 83.085236 47.9125554 82.8826526 47.8850986 82.6770979 47.8080161 82.4881208 47.0535384 79.8754724 46.295468 77.2635426 45.5338048 74.6523313 45.4863805 74.4885019 45.4454232 74.3225168 45.3915319 74.1198857L46.6719883 74.1198857 48.5021355 80.9726985 48.6293189 80.9726985 50.5090461 74.11773 51.6968095 74.11773C51.676743 74.2627214 51.6494036 74.4066128 51.6148948 74.5488601 50.7526346 77.4891673 49.8860631 80.4280375 49.0151803 83.3654705 48.8864054 83.810936 48.717576 84.243832 48.5107581 84.6588608 47.9632229 85.7172852 46.8703081 86.0966797 45.6997899 85.6461487zM29.0021214 82.8524257L27.8639379 82.8524257C27.7604667 82.4838095 27.7345989 74.740713 27.8402258 74.11773L28.8857163 74.11773 28.9352962 75.0575936C29.0603239 74.919632 29.1379274 74.8420286 29.2069082 74.7579582 29.9161172 73.895698 31.3776482 73.6197748 32.3670918 74.1543761 32.7403107 74.3490652 33.0073918 74.6999055 33.0957016 75.1114849 33.1936005 75.5125949 33.2478073 75.923121 33.2573754 76.3358943 33.2746206 78.4031631 33.2573754 80.4725876 33.2573754 82.5398564 33.2573754 82.6260824 33.2422859 82.7101528 33.2315076 82.8351805L32.0545224 82.8351805C32.0545224 82.6196155 32.0545224 82.4277626 32.0545224 82.2251314 32.0545224 80.3820503 32.0545224 78.5368135 32.0545224 76.6937323 32.0577136 76.4184866 32.0353426 76.143539 31.9876973 75.8724295 31.9119102 75.3754031 31.4837776 75.0086943 30.9810085 75.0101693 29.9182728 74.9239433 29.1853517 75.499502 29.0258335 76.5579263 29.0005258 76.7631234 28.9904386 76.969912 28.9956544 77.176598 28.9956544 78.8651909 28.9956544 80.5537838 28.9956544 82.2423766 29.0021214 82.4212956 29.0021214 82.6088372 29.0021214 82.8524257zM0 58.7845882L0 51.0242466C.722142907 51.0242466 1.41195106 50.9832892 2.09529225 51.0242466 2.89288293 51.0846048 3.38868253 51.5588479 3.53526677 52.3456603 3.59358282 52.6490594 3.6238894 52.9571763 3.62580409 53.266123 3.63586379 54.3669419 3.63586379 55.4684793 3.62580409 56.5707352 3.62355733 56.8973155 3.58962648 57.2229073 3.52448851 57.5429336 3.37143733 58.2758547 2.92737333 58.7069848 2.18367392 58.7608761 1.43997451 58.8147673.745855062 58.7845882 0 58.7845882zM1.18345211 52.1667413L1.18345211 57.6787396C1.39901715 57.6787396 1.58440309 57.6787396 1.76763338 57.6787396 1.92543488 57.6899722 2.08097478 57.6362441 2.19819949 57.5300092 2.3154242 57.4237743 2.38415514 57.274257 2.38846072 57.1161148 2.40707819 56.9623748 2.41356518 56.807408 2.40786157 56.6526499 2.40786157 55.7400912 2.40786157 54.826814 2.40786157 53.9128182 2.40786157 53.6196497 2.40786157 53.3264813 2.40786157 53.0333128 2.37983812 52.4599098 2.11469311 52.1947648 1.54560139 52.1538074 1.42474093 52.1516851 1.30385323 52.1560025 1.18345211 52.1667413zM52.5051784 58.816923L52.5051784 51.0328692C53.1954878 51.0000543 53.8870911 51.0058117 54.5767585 51.0501144 55.3096797 51.1341847 55.7666776 51.6386069 55.97362 52.3435046 56.2206518 53.115666 56.0429333 53.9608527 55.5058439 54.5681359 55.4411744 54.647895 55.3678823 54.7190315 55.270878 54.826814 55.757098 55.1949121 56.0742089 55.7436383 56.1503834 56.3487032 56.235851 56.8438618 56.1782688 57.3531271 55.9843983 57.8167012 55.7896104 58.3905659 55.2639638 58.7871513 54.6586732 58.816923 53.9602425 58.8492578 53.2553448 58.816923 52.5051784 58.816923zM53.6627627 57.6765839C53.8050357 57.6938291 53.8783278 57.71323 53.9731764 57.7153856 54.5832255 57.7261639 54.8354366 57.5321553 54.9022618 56.9328845 54.9356636 56.678171 54.9356636 56.4201864 54.9022618 56.1654729 54.8031018 55.4756648 54.3547265 55.2320763 53.6713853 55.486443L53.6627627 57.6765839zM53.6994088 52.1516518C53.5937819 52.7703234 53.6153384 53.8610826 53.7360548 54.2361658 54.0895815 54.2641892 54.468976 54.339637 54.6780741 53.932219 54.9303314 53.469271 54.9303314 52.9099239 54.6780741 52.4469759 54.4819099 52.0568031 54.0917372 52.1171613 53.6994088 52.1516518L53.6994088 52.1516518zM68.1573565 51.0242466C68.8794994 51.0242466 69.5499067 50.9876005 70.2160027 51.0242466 71.0782629 51.0824491 71.5977746 51.6084278 71.724958 52.4599098 71.7699255 52.8008054 71.7922494 53.1443067 71.7917832 53.488155 71.7917832 54.5379568 71.8133397 55.5877586 71.7917832 56.6354047 71.7768423 57.0465047 71.7109509 57.4541626 71.595619 57.8490359 71.4702053 58.2932709 71.103242 58.6276338 70.6492884 58.7112961 69.8387638 58.8902151 69.0153054 58.8083004 68.1702904 58.7888995L68.1573565 51.0242466zM69.3494312 57.6744283C69.5649962 57.6744283 69.7460709 57.6744283 69.9293012 57.6744283 70.3086956 57.6528717 70.4509686 57.5299997 70.5328833 57.1635391 70.5588007 57.0460272 70.5718117 56.9260371 70.571685 56.8057011 70.571685 55.5834473 70.5846189 54.3590378 70.571685 53.1410953 70.571685 52.3456603 70.1556445 52.0503362 69.3494312 52.2227882L69.3494312 57.6744283zM109.233276 51.0242466C109.957575 51.0242466 110.627982 50.9897562 111.296234 51.0242466 112.132626 51.0781378 112.649982 51.58256 112.805189 52.4081742 112.850359 52.6449218 112.875596 52.8850403 112.880637 53.1260058 112.880637 54.3137692 112.900038 55.4972213 112.880637 56.689296 112.866496 57.0835223 112.800542 57.4741741 112.684473 57.8511916 112.556128 58.2952451 112.188263 58.6289098 111.733831 58.7134518 110.92115 58.8902151 110.097692 58.8126117 109.252677 58.7867439L109.233276 51.0242466zM110.425351 52.1602744L110.425351 57.6420935C110.550379 57.6550274 110.640916 57.6722726 110.748698 57.6765839 111.436351 57.6938291 111.632515 57.5062875 111.660539 56.8143237 111.660539 56.7625881 111.660539 56.7108525 111.660539 56.6591169 111.660539 55.5554238 111.660539 54.4517308 111.660539 53.3501934 111.663855 53.1783363 111.650863 53.0065521 111.621737 52.8371486 111.587973 52.4758969 111.294269 52.1941249 110.931929 52.1753639 110.763462 52.1609693 110.59421 52.1580884 110.425351 52.1667413L110.425351 52.1602744zM37.8273544 58.7953665L36.6352797 58.7953665 35.8894246 55.579136 35.3095547 55.579136 35.3095547 58.7393196C34.9273906 58.8450499 34.5257769 58.8598151 34.1368808 58.7824326L34.1368808 51.0544257C34.2501789 51.0333003 34.3646288 51.0189041 34.4796292 51.0113127 35.0142305 51.0113127 35.5574545 51.0113127 36.0812775 51.0113127 36.6472235 50.9875589 37.1757936 51.2934405 37.4371817 51.7959694 37.9610047 52.6862531 37.8920239 54.1240719 37.2431731 54.9259739 37.0600764 55.1280847 37.0006928 55.4134562 37.0879663 55.671829 37.3035313 56.5340892 37.5190964 57.4071276 37.7346614 58.2780104 37.7669962 58.4289059 37.7907083 58.5970467 37.8273544 58.7953665zM35.3267999 54.3978395C35.5421696 54.4108163 35.7581252 54.4108163 35.973495 54.3978395 36.2052756 54.3771539 36.3970521 54.2089136 36.4477381 53.981799 36.5737538 53.5327741 36.5797003 53.0585375 36.4649833 52.606494 36.4123641 52.3433172 36.1836329 52.1522594 35.9152924 52.1473405 35.7320621 52.1344066 35.5466762 52.1473405 35.3332668 52.1473405L35.3267999 54.3978395zM24.434298 54.9281296C24.434298 55.6869185 24.4580102 56.4370849 24.434298 57.2044964 24.4359282 57.7223125 24.2144719 58.2157477 23.8265173 58.5587161 23.4385627 58.9016845 22.9216945 59.0609595 22.4079866 58.995842 21.4659674 58.9225499 20.8041827 58.2176522 20.7546027 57.1958738 20.7287349 56.6806734 20.7546027 56.1611616 20.7546027 55.6438055 20.7546027 54.7470549 20.7546027 53.8503043 20.7546027 52.9535537 20.7508049 52.7640916 20.7608916 52.5746059 20.7847818 52.3866177 20.9040064 51.4319055 21.7553155 50.7413464 22.714089 50.8216154 23.6583408 50.8410671 24.4191577 51.601884 24.4386093 52.5461358 24.4709441 53.3372595 24.4386093 54.1326945 24.4386093 54.9173513L24.434298 54.9281296zM23.2120442 54.9453748C23.2120442 54.2383214 23.2120442 53.5334237 23.2120442 52.828526 23.2175573 52.6907591 23.2088891 52.5527904 23.1861764 52.4167968 23.1351508 52.1356153 22.8957719 51.9275379 22.6102249 51.9161574 22.3246778 51.9047769 22.0694986 52.0931436 21.9962574 52.3693725 21.9714042 52.4518547 21.9590517 52.5375957 21.9596113 52.6237392 21.9596113 54.1564067 21.9596113 55.6890742 21.9596113 57.2217417 21.9596113 57.6679613 22.2527798 57.9546628 22.6063064 57.9374176 22.9598331 57.9201724 23.1732425 57.6528717 23.2034216 57.219586 23.2034216 57.0988696 23.2034216 56.9781532 23.2034216 56.8574367 23.20917 56.2193642 23.2120442 55.5820102 23.2120442 54.9453748L23.2120442 54.9453748z"/>
    <polygon fill="#231E20" fill-rule="nonzero" points="4.139 80.798 5.881 74.116 7.131 74.116 4.723 82.842 3.391 82.842 1.056 74.129 2.35 74.129 4.014 80.792"/>
    <path fill="#231E20" fill-rule="nonzero" d="M48.0149585 56.3594815L48.4159095 55.1480059 49.3449948 55.3980614C49.2954149 56.1396051 48.9893125 56.7539655 48.6616536 57.4071276L49.239368 57.9050829 49.239368 58.9419507C48.6961441 59.0303324 48.3771078 58.6509379 48.0106472 58.4095051 47.7616485 58.5662509 47.5047901 58.7101491 47.24108 58.8406352 46.3594189 59.2329635 45.5165596 58.9009934 45.1781225 57.9999315 44.806827 57.0988546 44.9734854 56.0655723 45.6092526 55.3269249 45.8356356 55.09761 45.8839037 54.7465697 45.7278134 54.4646647 45.4490865 53.868849 45.3203174 53.2139029 45.3527302 52.556914 45.3670332 52.1403425 45.5126502 51.7389525 45.7687707 51.410108 46.1457503 50.9376524 46.7758523 50.747935 47.3510182 50.9337092 47.8908765 51.1212003 48.2474188 51.6363996 48.2326792 52.2076987 48.2307882 52.5673795 48.1755781 52.9247923 48.0688498 53.2682787 47.9748492 53.6358777 47.8084952 53.9810439 47.5795171 54.2835901 47.1031184 54.8311253 47.1828774 55.3161466 47.5795171 55.8399697 47.7002335 56.0016435 47.7950822 56.1870294 47.8942421 56.3616371L48.0149585 56.3594815zM46.6590544 53.9451529C47.062161 53.4601316 47.3251504 52.7832573 47.3057495 52.3478159 47.284193 51.9727328 47.0901845 51.7011208 46.8595299 51.6774087 46.6288753 51.6536965 46.4068433 51.9102189 46.3658859 52.3003916 46.3050388 52.8660718 46.4067367 53.437375 46.6590544 53.9473086L46.6590544 53.9451529zM46.4133102 56.0706243C46.1324476 56.3899906 46.0154215 56.8214749 46.0964296 57.2389869 46.1230266 57.4885427 46.3077007 57.6923811 46.5534275 57.7434091 46.8336621 57.7973003 47.1009627 57.7778995 47.2604808 57.4761084L46.4133102 56.0706243zM79.4939223 58.7867439L78.7523785 55.579136 78.1638859 55.579136 78.1638859 58.7371639C77.7857068 58.8516273 77.3837848 58.8627918 76.9998347 58.7694987L76.9998347 51.0264022C77.7823358 51.0264022 78.5368135 50.9897562 79.2869798 51.0393361 79.7478517 51.0896226 80.1425082 51.3920541 80.3109138 51.8239929 80.815336 52.9018181 80.7765343 53.9667094 80.0737923 54.9518417 79.92438 55.1316918 79.8735421 55.373777 79.9379863 55.5985369 80.19882 56.6310934 80.4445641 57.6679613 80.7032422 58.7328526 80.3001356 58.8815925 79.9164298 58.82339 79.4939223 58.7867439zM78.1746642 54.3870613C78.3277154 54.3999952 78.4311866 54.4172404 78.5325022 54.4172404 79.0800374 54.4172404 79.2999137 54.246944 79.3624276 53.7144983 79.4032984 53.3902781 79.4032984 53.0622089 79.3624276 52.7379887 79.3020694 52.3068586 79.0929713 52.1516518 78.6618412 52.1344066 78.5131013 52.1344066 78.3622058 52.1494961 78.1875981 52.1581187L78.1746642 54.3870613zM57.0643792 51.0350248L58.2542982 51.0350248C58.2542982 51.2182551 58.2758547 51.4014854 58.2758547 51.58256 58.2758547 53.32217 58.2758547 55.0617799 58.2758547 56.8035455 58.2722729 57.0084444 58.299894 57.2126952 58.3577694 57.4092832 58.4417467 57.6634221 58.6830617 57.8319039 58.9505733 57.8231681 59.2376124 57.8052882 59.4735087 57.5900216 59.5175094 57.305812 59.5425528 57.1352935 59.5519331 56.9628404 59.5455329 56.7906116 59.5455329 55.0660912 59.5455329 53.3415708 59.5455329 51.6170504 59.5455329 51.4316645 59.5455329 51.2462786 59.5455329 51.0307135L60.7009615 51.0307135C60.7261957 51.1398936 60.7427738 51.2508949 60.7505415 51.3626837 60.7505415 53.2747456 60.7505415 55.1868076 60.7505415 57.0988696 60.7505415 58.7371639 59.1769166 59.3773921 58.0344219 58.7845882 57.3316798 58.4202833 57.0686905 57.7843664 57.0536009 57.0320444 57.040667 56.3249911 57.0536009 55.6200934 57.0536009 54.91304 57.0536009 53.8107841 57.0536009 52.7085281 57.0536009 51.6062722 57.0643792 51.4424428 57.0643792 51.2721464 57.0643792 51.0350248zM89.3711127 55.6481168L89.3711127 58.7867439 88.1876606 58.7867439C88.1876606 56.1999633 88.1876606 53.6390506 88.1876606 51.0264022 88.9938739 51.0264022 89.7483516 50.9983788 90.4985179 51.0371805 90.9230386 51.0799271 91.2918503 51.3474802 91.4642493 51.7377669 92.0357382 52.7481226 92.0042489 53.9911197 91.3823346 54.9712426 91.1222473 55.4142384 90.636335 55.6746674 90.1234347 55.6459612L89.3711127 55.6481168zM89.4120701 54.5293342C89.6276351 54.5293342 89.7871533 54.5401125 89.9402044 54.5293342 90.2851085 54.4991551 90.5071405 54.339637 90.5416309 53.9990442 90.5847508 53.5553067 90.5847508 53.108434 90.5416309 52.6646966 90.5071405 52.3197925 90.2915755 52.168897 89.9402044 52.1387179 89.7742194 52.1257839 89.6060786 52.1387179 89.4077588 52.1387179L89.4120701 54.5293342zM84.947718 52.7961912L83.8957605 52.9492424C83.8397136 52.7466113 83.8052232 52.563381 83.7405537 52.3887733 83.6579262 52.1330568 83.4115028 51.9666988 83.1434385 51.9856667 82.8726391 51.982525 82.6380252 52.1727525 82.5851251 52.4383533 82.5378869 52.6886981 82.5656337 52.9474182 82.6648841 53.1820527 82.8846793 53.5667156 83.1432676 53.9278725 83.436607 54.2598779 83.7577989 54.641428 84.1328821 54.9777095 84.460541 55.3527927 84.9018743 55.8478749 85.1255975 56.4996242 85.0813683 57.1613834 85.033944 58.1098696 84.4346732 58.8363239 83.5400782 58.9656629 82.5398564 59.1122471 81.6819075 58.6142919 81.3844277 57.6916735 81.3136445 57.4128852 81.2603678 57.1299426 81.2249096 56.8445028L82.3307583 56.682829C82.3868052 56.9177949 82.4169843 57.1031809 82.4751869 57.2799442 82.5253817 57.4743831 82.6525043 57.6400421 82.8273325 57.7388404 83.0021607 57.8376386 83.2096546 57.8610769 83.4021166 57.8037673 83.59634 57.7501581 83.7589683 57.6171613 83.850059 57.4374417 83.9411498 57.257722 83.9522637 57.0479303 83.880671 56.8595924 83.7744326 56.5520443 83.6178097 56.2642952 83.4172061 56.0081104 83.1067925 55.6179377 82.7360206 55.2795006 82.4062061 54.9022618 82.1384015 54.6105274 81.8926963 54.2992528 81.6711293 53.9710207 81.3322368 53.4387676 81.2529595 52.781559 81.4555642 52.1839865 81.7141464 51.2807572 82.6159603 50.7212037 83.5400782 50.8905962 84.3527584 51.0220909 84.9455623 51.7851912 84.947718 52.7961912zM26.7300658 58.7910552L25.5767928 58.7910552 25.5767928 51.0177796C26.352827 51.0177796 27.1073046 50.9940675 27.857471 51.0177796 28.2248101 51.063848 28.5502427 51.2770899 28.739132 51.5954939 29.3858272 52.4922445 29.3599594 54.1822745 28.6723069 55.0596242 28.4000075 55.4258941 27.9689429 55.6398239 27.5125669 55.6351829 27.2732897 55.6351829 27.0340125 55.6351829 26.7322214 55.6351829L26.7300658 58.7910552zM26.7494666 54.512089C26.9111404 54.512089 27.012456 54.5336455 27.1159272 54.5336455 27.6569955 54.5336455 27.8811831 54.3633491 27.9286075 53.8244365 27.9610875 53.4325759 27.9473405 53.0382544 27.8876501 52.649607 27.8359145 52.291769 27.6483729 52.1667413 27.2819123 52.1387179 27.1159272 52.1257839 26.9477865 52.1387179 26.7494666 52.1387179L26.7494666 54.512089zM42.1106319 52.7832573L41.0328066 52.9557094 40.9207128 52.5396688C40.808619 52.1085387 40.5413183 51.9253085 40.1791691 52.0072232 40.006434 52.0411446 39.8549916 52.1440165 39.7597998 52.2920927 39.6646079 52.440169 39.6338937 52.6206518 39.6747468 52.7918799 39.7445929 53.0924917 39.8695779 53.3775452 40.0433631 53.6325836 40.29492 53.9600372 40.5663228 54.2717546 40.8560433 54.5659803 41.1319666 54.8720826 41.4272907 55.1630955 41.6881244 55.4842874 42.0717648 55.9589811 42.2619388 56.5610703 42.2205701 57.170006 42.1731457 58.2047183 41.468248 58.9419507 40.4766488 59.0001533 39.4650271 59.0945018 38.5600909 58.3715054 38.4287809 57.3640146 38.4050687 57.2131191 38.40938 57.0579122 38.3986018 56.8531254L39.476427 56.6979186C39.5130731 56.9005497 39.5324739 57.0514453 39.5712756 57.1980295 39.6919921 57.6658056 40.0735422 57.9266394 40.4852714 57.8317907 40.7007562 57.7853826 40.8837802 57.644188 40.9833604 57.4475381 41.0829406 57.2508882 41.0884361 57.0197961 40.9983162 56.818635 40.8850225 56.5129388 40.7218574 56.2281283 40.5154505 55.9757757 40.2503055 55.6394942 39.926958 55.3484814 39.6402564 55.0272895 39.360651 54.7230726 39.0972954 54.4043116 38.8512884 54.0723363 38.4964115 53.5501462 38.3869898 52.8991265 38.551653 52.2896134 38.7363736 51.488954 39.4376168 50.9134387 40.2589281 50.8884406 41.1211883 50.8582615 41.7678835 51.3195707 42.0200946 52.1818309 42.0556388 52.2971798 42.0844296 52.4145024 42.1063206 52.5332019 42.1139632 52.6163311 42.1154042 52.6999141 42.1106319 52.7832573L42.1106319 52.7832573z"/>
    <polygon fill="#231E20" fill-rule="nonzero" points="8.31 51.031 9.47 51.031 10.308 56.42 10.351 56.42 11.164 51.031 12.322 51.031 10.951 58.778 9.7 58.778"/>
    <path fill="#231E20" fill-rule="nonzero" d="M75.4477664 55.3010571L74.1974891 55.3010571C74.074617 55.7041637 74.0530605 56.9522853 74.1522204 57.6420935L76.0039242 57.6420935 76.0039242 58.7888995 72.9321223 58.7888995 72.9321223 51.0501144 75.9974572 51.0501144 75.9974572 52.1042274 74.1069518 52.1042274C74.0875509 52.822059 74.0853953 53.4795324 74.1069518 54.2016753L75.4477664 54.2016753 75.4477664 55.3010571zM32.5934351 54.1714962L32.5934351 55.2924345 31.2418422 55.2924345C31.2267527 56.0943365 31.2289083 56.8401915 31.2418422 57.6377822L33.0784564 57.6377822C33.2358189 58.0279549 33.1409703 58.3814816 33.1603711 58.7824326 32.119192 58.866503 31.1168145 58.8083004 30.0756353 58.82339L30.0756353 51.0371805 33.093546 51.0371805C33.1878342 51.3902693 33.1878342 51.7619169 33.093546 52.1150057L31.2569318 52.1150057 31.2569318 54.1628736 32.5934351 54.1714962zM13.0977322 58.7867439L13.0977322 51.0414918 16.1673785 51.0414918 16.1673785 52.119317 14.2984295 52.119317C14.240227 52.8263704 14.2747174 53.4838437 14.2725617 54.2016753L15.6219989 54.2016753 15.6219989 55.2795006 14.2876513 55.2795006C14.2876513 55.7106307 14.2704061 56.0770913 14.2660948 56.4478631 14.2617835 56.818635 14.2660948 57.2001851 14.2660948 57.6420935L16.1673785 57.6420935 16.1673785 58.7824326 13.0977322 58.7867439zM5.96037354 54.1930527L7.29472118 54.1930527 7.29472118 55.270878 5.95606224 55.3333918 5.95606224 57.620537 7.8250112 57.620537 7.8250112 58.7867439C6.83556763 58.866503 5.83103451 58.8126117 4.8394353 58.8190786 4.71440757 58.4095051 4.67345021 51.9059076 4.77476578 51.0975387 5.12613681 50.9897562 7.01233097 50.9574214 7.83147815 51.0501144L7.83147815 52.1042274C7.53184273 52.1042274 7.22789602 52.1214726 6.9239493 52.1257839 6.62000258 52.1300952 6.30743327 52.1257839 5.95821789 52.1257839L5.96037354 54.1930527zM16.0919307 82.8459588L15.0141055 82.8459588C14.9149456 82.4773425 14.8739882 72.0849516 14.9709925 71.1493993L16.1005533 71.1493993 16.0919307 82.8459588zM67.2347381 82.8459588L67.2347381 74.11773 68.3125633 74.11773 68.3125633 75.2623804 68.4052563 75.2990265C68.4893266 75.1632205 68.5712414 75.0274145 68.659623 74.8937642 69.1041279 74.1284341 69.9911634 73.7367109 70.8562309 73.9237215L70.8562309 75.1136405C70.6837788 75.1136405 70.5156381 75.1136405 70.3474973 75.1136405 69.5592755 75.0805412 68.8490958 75.5865442 68.622977 76.3423613 68.4984944 76.7357887 68.4331121 77.1455177 68.4289684 77.5581482 68.4074119 79.1274617 68.4289684 80.6967752 68.4289684 82.2639331 68.4289684 82.4493191 68.4289684 82.634705 68.4289684 82.8459588L67.2347381 82.8459588zM104.980178 52.1451848L104.980178 51.0889161C105.344483 50.9832892 107.758811 50.9509544 108.612449 51.0414918L108.612449 52.1063831 107.394506 52.1063831 107.394506 58.7888995 106.208899 58.7888995 106.208899 52.1451848 104.980178 52.1451848z"/>
    <polygon fill="#231E20" fill-rule="nonzero" points="17.165 51.029 18.31 51.029 18.31 57.711 20.168 57.711 20.168 58.789 17.165 58.789"/>
    <path fill="#231E20" fill-rule="nonzero" d="M67.420124,58.7932108 L64.4194586,58.7932108 L64.4194586,51.009157 L65.557642,51.009157 C65.557642,51.5847157 65.5705759,52.1279396 65.5748872,52.6711635 C65.5791985,53.2143874 65.5748872,53.7727009 65.5748872,54.3245474 L65.5748872,57.7002961 L67.420124,57.7002961 L67.420124,58.7932108 Z"/>
    <polygon fill="#231E20" fill-rule="nonzero" points="105.319 57.709 105.319 58.787 102.301 58.787 102.301 51.044 103.445 51.044 103.445 57.709"/>
    <path fill="#231E20" fill-rule="nonzero" d="M24.9150081 74.0897066C25.2081766 74.0897066 25.464699 74.0897066 25.7190657 74.0897066 25.8354708 74.0897066 25.951876 74.1047961 26.1027715 74.1155744L26.1027715 82.8739822 24.9150081 82.8739822 24.9150081 74.0897066zM62.0072857 51.0264022L63.0570875 51.0264022C63.1670256 51.3885515 63.2058274 58.015021 63.1002005 58.7867439L62.0396204 58.7867439C61.9210597 58.4418398 61.8865693 51.7356112 62.0072857 51.0264022z"/>
    <polygon fill="#231E20" fill-rule="nonzero" points="26.094 72.645 24.926 72.645 24.926 71.136 26.094 71.136"/>
    <path fill="#231E20" fill-rule="nonzero" d="M101.003003,58.7888995 L99.9251774,58.7888995 L99.9251774,57.6765839 C100.272237,57.5666457 100.617141,57.6248483 101.003003,57.6399378 L101.003003,58.7888995 Z"/>
    <polygon fill="#231E20" fill-rule="nonzero" points="115.071 58.785 113.993 58.785 113.993 57.651 115.071 57.651"/>
  </g>
</svg>
